# xmcd CD database file
#
# Track frame offsets:
#	150
#	15450
#	34575
#	51335
#	70500
#	96622
#	115075
#	134350
#	152907
#	170765
#	189600
#
# Disc length: 2783 seconds
#
# Revision: 1
# Processed by: cddbd v1.5.1PL0 Copyright (c) Steve Scherf et al.
# Submitted via: CDex 1.51
#
DISCID=950add0b
DTITLE=河合その子・国生さゆり・城之内早苗・渡辺美奈代・渡辺満里奈 - お年玉
DYEAR=1987
DGENRE=JPop
TTITLE0=ホワイトラビットからのメッセージ
TTITLE1=バスルームでDIARY
TTITLE2=PINKのCHAO
TTITLE3=リルケの栞
TTITLE4=MERRY X'MAS FOR YOU
TTITLE5=再会
TTITLE6=流氷の手紙
TTITLE7=雨のニューオリンズ
TTITLE8=星屑の狙撃手
TTITLE9=悲しい夜を止めて
TTITLE10=星のピリオド
EXTD=YEAR: 1987
EXTT0=
EXTT1=
EXTT2=
EXTT3=
EXTT4=
EXTT5=
EXTT6=
EXTT7=
EXTT8=
EXTT9=
EXTT10=
PLAYORDER=
